HIERARCHY
ROOT Hips
{
	OFFSET 0.000000 0.000000 0.000000
	CHANNELS 6 Xposition Yposition Zposition Zrotation Yrotation Xrotation 
	JOINT LowerBack
	{
		OFFSET 0.000000 0.000000 0.000000
		CHANNELS 3 Zrotation Yrotation Xrotation
		JOINT Spine
		{
			OFFSET 0.028270 2.035590 -0.193380
			CHANNELS 3 Zrotation Yrotation Xrotation
			JOINT Spine1
			{
				OFFSET 0.056720 2.048850 -0.042750
				CHANNELS 3 Zrotation Yrotation Xrotation
				JOINT Neck
				{
					OFFSET 0.000000 0.000000 0.000000
					CHANNELS 3 Zrotation Yrotation Xrotation
					JOINT Neck1
					{
						OFFSET -0.054170 1.746240 0.172020
						CHANNELS 3 Zrotation Yrotation Xrotation
						JOINT Head
						{
							OFFSET 0.104070 1.761360 -0.123970
							CHANNELS 3 Zrotation Yrotation Xrotation
							End Site
							{
								OFFSET 0.000000 0.000000 0.000000
							}
						}
					}
				}
				JOINT LeftShoulder
				{
					OFFSET 0.000000 0.000000 0.000000
					CHANNELS 3 Zrotation Yrotation Xrotation
					JOINT LeftArm
					{
						OFFSET 3.362410 1.200890 -0.311210
						CHANNELS 3 Zrotation Yrotation Xrotation
						JOINT LeftForeArm
						{
							OFFSET 4.983000 -0.000000 -0.000000
							CHANNELS 3 Zrotation Yrotation Xrotation
							JOINT LeftHand
							{
								OFFSET 3.483560 -0.000000 -0.000000
								CHANNELS 3 Zrotation Yrotation Xrotation
								JOINT LeftFingerBase
								{
									OFFSET 0.000000 0.000000 0.000000
									CHANNELS 3 Zrotation Yrotation Xrotation
									JOINT LeftHandIndex1
									{
										OFFSET 0.715260 -0.000000 -0.000000
										CHANNELS 3 Zrotation Yrotation Xrotation
										End Site
										{
											OFFSET 0.000000 0.000000 0.000000
										}
									}
								}
								JOINT LThumb
								{
									OFFSET 0.000000 0.000000 0.000000
									CHANNELS 3 Zrotation Yrotation Xrotation
									End Site
									{
										OFFSET 0.000000 0.000000 0.000000
									}
								}
							}
						}
					}
				}
				JOINT RightShoulder
				{
					OFFSET 0.000000 0.000000 0.000000
					CHANNELS 3 Zrotation Yrotation Xrotation
					JOINT RightArm
					{
						OFFSET -3.136600 1.374050 -0.404650
						CHANNELS 3 Zrotation Yrotation Xrotation
						JOINT RightForeArm
						{
							OFFSET -5.241900 -0.000000 -0.000000
							CHANNELS 3 Zrotation Yrotation Xrotation
							JOINT RightHand
							{
								OFFSET -3.444170 -0.000000 -0.000000
								CHANNELS 3 Zrotation Yrotation Xrotation
								JOINT RightFingerBase
								{
									OFFSET 0.000000 0.000000 0.000000
									CHANNELS 3 Zrotation Yrotation Xrotation
									JOINT RightHandIndex1
									{
										OFFSET -0.622530 -0.000000 -0.000000
										CHANNELS 3 Zrotation Yrotation Xrotation
										End Site
										{
											OFFSET 0.000000 0.000000 0.000000
										}
									}
								}
								JOINT RThumb
								{
									OFFSET 0.000000 0.000000 0.000000
									CHANNELS 3 Zrotation Yrotation Xrotation
									End Site
									{
										OFFSET 0.000000 0.000000 0.000000
									}
								}
							}
						}
					}
				}
			}
		}
	}
}
}
MOTION
Frames: 7
Frame Time: 0.008333
-4.173242 17.566445 -0.792217 -119.889813 88.980149 -84.635596 8.722007 -5.236977 2.184420 2.228751 -5.625134 -2.431599 -2.313425 -5.787648 0.963709 1.080729 -17.207639 -3.789994 -1.187633 -0.135892 0.795445 0.000000 0.000000 0.000000 11.110120 5.597473 -2.332232 -61.161200 -32.384701 7.968972 -178.218413 -63.054129 179.983458 1.841189 -1.844284 -0.041234 -0.086227 0.723983 -0.000000 0.000000 0.000000 0.000000 0.000000 0.000000 0.000000 -5.561831 -16.160625 -0.098368 58.292762 -44.691102 18.757841 179.942231 85.952726 179.993522 0.179551 11.970984 0.023566 -0.037913 -0.284132 -0.000000 0.000000 0.000000 0.000000 0.000000 0.000000 0.000000 
-3.874085 17.499957 -0.770954 -108.170054 88.848350 -73.515674 9.003874 -5.314235 2.690486 2.263450 -5.690539 -2.370634 -2.453108 -5.842430 0.794584 1.419997 -17.137848 -3.833196 -1.270124 -0.140741 0.781781 0.000000 0.000000 0.000000 10.970660 5.151369 -2.222822 -62.319754 -30.320097 9.398948 -178.162451 -63.980310 179.985781 1.723370 -1.714013 -0.036278 -0.093720 0.707452 0.000000 0.000000 0.000000 0.000000 0.000000 0.000000 0.000000 -5.036209 -15.976948 -0.103607 59.381445 -44.485063 17.453743 179.913970 84.797581 179.992024 -0.146461 12.210572 -0.011802 -0.036900 -0.300121 -0.000000 0.000000 0.000000 0.000000 0.000000 0.000000 0.000000 
-3.571644 17.420532 -0.748949 -96.152565 88.594018 -62.075790 9.322257 -5.363666 3.127999 2.301638 -5.729675 -2.319438 -2.603220 -5.869660 0.644582 1.762864 -17.090143 -3.889772 -1.352670 -0.145396 0.765902 0.000000 0.000000 0.000000 10.702459 4.724580 -2.101020 -63.513336 -28.157739 10.723633 -178.144049 -65.125260 179.987751 1.628223 -1.581380 -0.032018 -0.100526 0.689583 0.000000 0.000000 0.000000 0.000000 0.000000 0.000000 0.000000 -4.503779 -15.817943 -0.100053 60.478950 -43.969017 16.287828 179.894879 83.872056 179.990511 -0.491418 12.435615 -0.050763 -0.034837 -0.315255 -0.000000 0.000000 0.000000 0.000000 0.000000 0.000000 0.000000 
-3.265473 17.327815 -0.725859 -85.004288 88.252678 -51.443919 9.622007 -5.381123 3.455034 2.332222 -5.739635 -2.285368 -2.762499 -5.866913 0.519096 2.107318 -17.070272 -3.962534 -1.434562 -0.149825 0.747790 0.000000 0.000000 0.000000 10.304237 4.305679 -1.968605 -64.707984 -25.878070 11.893651 -178.171553 -66.498767 179.989217 1.566845 -1.427043 -0.028166 -0.106456 0.669517 -0.000000 0.000000 0.000000 0.000000 0.000000 0.000000 0.000000 -3.959202 -15.689490 -0.087861 61.570975 -43.148122 15.242287 179.884124 83.224759 179.989180 -0.847818 12.588644 -0.092218 -0.031296 -0.328307 -0.000000 0.000000 0.000000 0.000000 0.000000 0.000000 0.000000 
-2.956253 17.222543 -0.702175 -75.575793 87.876756 -42.476265 9.863121 -5.379385 3.675529 2.348005 -5.732282 -2.266408 -2.931244 -5.846217 0.420233 2.458721 -17.071610 -4.053184 -1.515504 -0.153982 0.726805 0.000000 0.000000 0.000000 9.780624 3.899441 -1.827536 -65.888067 -23.504880 12.877140 -178.251035 -68.130261 179.989891 1.572674 -1.295208 -0.026021 -0.112055 0.648652 -0.000000 0.000000 0.000000 0.000000 0.000000 0.000000 0.000000 -3.386826 -15.595761 -0.067398 62.649153 -42.023125 14.297301 179.881212 82.916318 179.988205 -1.165611 12.679357 -0.129672 -0.026908 -0.338783 -0.000000 0.000000 0.000000 0.000000 0.000000 0.000000 0.000000 
-2.644513 17.105691 -0.677883 -67.999439 87.516295 -35.297482 10.037082 -5.371580 3.777187 2.348205 -5.720283 -2.264665 -3.114186 -5.820434 0.347061 2.826101 -17.087121 -4.160686 -1.598610 -0.158141 0.703442 0.000000 0.000000 0.000000 9.137797 3.492723 -1.678199 -67.026701 -21.046407 13.643594 -178.383017 -70.032246 179.989610 1.668486 -1.185857 -0.025589 -0.117753 0.626807 -0.000000 0.000000 0.000000 0.000000 0.000000 0.000000 0.000000 -2.755453 -15.540218 -0.042571 63.694524 -40.614997 13.424679 179.884569 82.971543 179.987735 -1.437872 12.680978 -0.161425 -0.021521 -0.345963 -0.000000 0.000000 0.000000 0.000000 0.000000 0.000000 0.000000 
-2.331293 16.978938 -0.653261 -62.093675 87.205550 -29.734464 10.155570 -5.366710 3.771302 2.334535 -5.712031 -2.277531 -3.318567 -5.798007 0.296386 3.221727 -17.104673 -4.283025 -1.688176 -0.162647 0.678031 0.000000 0.000000 0.000000 8.388716 3.082506 -1.520990 -68.105148 -18.525058 14.175711 -178.564444 -72.215536 179.988215 1.882750 -1.113860 -0.027275 -0.124180 0.604212 -0.000000 0.000000 0.000000 0.000000 0.000000 0.000000 0.000000 -2.027930 -15.520545 -0.018787 64.687943 -38.943570 12.603607 179.893158 83.395989 179.987835 -1.655317 12.597192 -0.185779 -0.015245 -0.349761 -0.000000 0.000000 0.000000 0.000000 0.000000 0.000000 0.000000 
